<?xml version="1.0" encoding="UTF-8"?>
<svg version="1.1" xmlns="http://www.w3.org/2000/svg" width="1024" height="1024">
<path d="M0 0 C337.92 0 675.84 0 1024 0 C1024 337.92 1024 675.84 1024 1024 C686.08 1024 348.16 1024 0 1024 C0 686.08 0 348.16 0 0 Z " fill="#010000" transform="translate(0,0)"/>
<path d="M0 0 C2.83023356 -0.00217636 5.66006993 -0.02035684 8.49023438 -0.03930664 C23.36913019 -0.0867173 37.81706521 0.81761176 52.29492188 4.49780273 C53.17712402 4.71654053 54.05932617 4.93527832 54.96826172 5.16064453 C93.71933763 14.94134595 137.95608187 35.61124035 160.96679688 70.03173828 C161.73242188 72.18530273 161.73242188 72.18530273 161.04833984 74.40161133 C160.61150879 75.20421387 160.17467773 76.00681641 159.72460938 76.83374023 C159.23863281 77.74518799 158.75265625 78.65663574 158.25195312 79.59570312 C157.70925781 80.574021 157.1665625 81.55233887 156.60742188 82.56030273 C155.78177734 84.09255493 155.78177734 84.09255493 154.93945312 85.65576172 C153.21875094 88.84067759 151.47664716 92.01322127 149.73242188 95.18530273 C148.71283489 97.06347251 147.69454686 98.94234818 146.67773438 100.82202148 C144.22818385 105.3410338 141.75980116 109.84942692 139.28515625 114.35473633 C136.50772192 119.41787684 133.74618968 124.48969361 130.98242188 129.56030273 C129.96686227 131.42231757 128.95124361 133.2843002 127.93554688 135.14624023 C127.50918945 135.92789551 127.08283203 136.70955078 126.64355469 137.51489258 C126.19254395 138.34174561 126.19254395 138.34174561 125.73242188 139.18530273 C122.52488528 137.58153444 121.95477742 134.1833647 120.66992188 130.99780273 C108.72041311 102.61572942 86.14446929 81.55301052 57.98144531 69.63061523 C40.60861562 62.60543762 23.6753839 59.77863653 5.04492188 59.87280273 C3.92165497 59.87553696 3.92165497 59.87553696 2.7756958 59.87832642 C-8.484983 59.92445826 -19.31407243 60.40471085 -30.26757812 63.18530273 C-31.24138428 63.42676025 -31.24138428 63.42676025 -32.23486328 63.6730957 C-53.32734421 69.06138347 -73.079608 79.83345135 -88.80273438 94.86108398 C-91.26757812 97.18530273 -91.26757812 97.18530273 -94.24414062 99.57983398 C-97.45898782 102.35025139 -99.99488431 105.21704456 -102.58007812 108.56030273 C-103.28837769 109.47440918 -103.28837769 109.47440918 -104.01098633 110.40698242 C-127.98380476 141.9622578 -137.30759756 181.24438364 -132.09179688 220.36499023 C-127.57041256 249.32841074 -115.29363528 274.91731955 -95.26757812 296.18530273 C-94.46320313 297.05155273 -93.65882813 297.91780273 -92.83007812 298.81030273 C-80.30510514 310.41881428 -66.31372072 318.54933213 -50.26757812 324.18530273 C-49.24277344 324.57588867 -48.21796875 324.96647461 -47.16210938 325.36889648 C-35.00869041 329.49049074 -21.98059745 329.50852222 -9.26757812 330.18530273 C-9.26757812 330.51530273 -9.26757812 330.84530273 -9.26757812 331.18530273 C-12.26672531 331.83531951 -15.26679613 332.48041311 -18.26757812 333.12280273 C-19.10675781 333.30520508 -19.9459375 333.48760742 -20.81054688 333.67553711 C-30.55024209 335.75182872 -39.82713102 336.37175539 -49.77392578 336.37060547 C-51.86707394 336.37277628 -53.9596801 336.39093811 -56.05273438 336.40991211 C-68.58988112 336.46466917 -80.5385166 335.12314445 -92.51757812 331.31030273 C-93.36803711 331.04781738 -94.21849609 330.78533203 -95.09472656 330.51489258 C-100.93970379 328.68343651 -106.65257288 326.63864791 -112.26757812 324.18530273 C-95.50117407 333.10360277 -79.09433509 339.39152042 -60.26757812 342.18530273 C-58.97013672 342.3825293 -58.97013672 342.3825293 -57.64648438 342.58374023 C-55.18213541 342.89126439 -52.74827272 343.06306561 -50.26757812 343.18530273 C-48.53121094 343.28198242 -48.53121094 343.28198242 -46.75976562 343.38061523 C-12.55437341 344.63838439 19.46147793 332.49062761 44.51367188 309.32592773 C46.95025728 306.97513759 49.34023601 304.58120895 51.73242188 302.18530273 C52.49941406 301.45311523 53.26640625 300.72092773 54.05664062 299.96655273 C76.2456808 278.54771065 90.05191454 249.73948172 103.60327148 222.45791626 C106.98054401 215.66056201 110.37052686 208.86951765 113.75878906 202.07763672 C114.65501991 200.28014548 115.5505325 198.48229593 116.4453125 196.68408203 C121.53354024 186.46013395 126.69969314 176.28907206 132.04830933 166.19877625 C136.5931491 157.6023651 140.91413497 148.89710179 145.23242188 140.18530273 C149.94724273 130.67352811 154.69668852 121.19012461 159.66992188 111.81030273 C165.03456688 101.68939609 170.14154667 91.44598145 175.23242188 81.18530273 C181.54580157 68.4606615 187.9735475 55.81318434 194.63116455 43.26495361 C197.25278463 38.31419924 199.83495187 33.34276408 202.41992188 28.37280273 C202.9680957 27.31963867 203.51626953 26.26647461 204.08105469 25.18139648 C207.64889697 18.31218978 211.15299759 11.41660375 214.56054688 4.46655273 C215.73242188 2.18530273 215.73242188 2.18530273 216.73242188 1.18530273 C218.45107596 1.09171084 220.17357931 1.06785662 221.89477539 1.07177734 C222.99584122 1.07185287 224.09690704 1.07192841 225.2313385 1.07200623 C226.42923508 1.07716751 227.62713165 1.0823288 228.86132812 1.08764648 C230.08069565 1.08906143 231.30006317 1.09047638 232.55638123 1.0919342 C236.46925257 1.09755306 240.38206768 1.11010877 244.29492188 1.12280273 C246.94010334 1.1278153 249.5852857 1.13237863 252.23046875 1.13647461 C258.73113913 1.14752862 265.23177649 1.1642851 271.73242188 1.18530273 C279.05102146 14.8787433 286.00223674 28.72447891 292.79492188 42.68530273 C293.81438346 44.77493437 294.83408126 46.86445078 295.85400391 48.95385742 C301.95043576 61.44861071 308.02648954 73.95330732 314.09066772 86.46374512 C318.68679912 95.94526801 323.30995649 105.41326127 327.95117188 114.87280273 C328.49891266 115.98927185 329.04665344 117.10574097 329.61099243 118.25604248 C332.31931891 123.77539487 335.02937049 129.29389266 337.74169922 134.8112793 C345.74364374 151.10073858 353.62222022 167.44670876 361.35601807 183.86524963 C365.68072785 193.04207738 370.16204915 202.1287853 374.73242188 211.18530273 C381.22312218 224.05950343 387.5881446 236.98260218 393.78320312 250.00170898 C397.07180901 256.90968746 400.40169909 263.79757511 403.73242188 270.68530273 C408.46246653 280.46752647 413.17408033 290.25816881 417.83007812 300.07592773 C420.28793567 305.23822401 422.8125707 310.36425967 425.37695312 315.47436523 C430.50600513 325.69634321 435.52544428 335.97168412 440.54492188 346.24780273 C441.02809875 347.23688629 441.51127563 348.22596985 442.00909424 349.24502563 C445.25427325 355.88980385 448.49534958 362.53657158 451.73242188 369.18530273 C452.27228729 370.29403748 452.27228729 370.29403748 452.82305908 371.4251709 C454.75923596 375.40385714 456.68713854 379.38641278 458.60742188 383.37280273 C459.04675049 384.27844971 459.4860791 385.18409668 459.9387207 386.1171875 C462.73242188 391.9495895 462.73242188 391.9495895 462.73242188 394.18530273 C436.00242187 394.18530273 409.27242187 394.18530273 381.73242188 394.18530273 C377.16044175 385.04134249 372.60551164 375.92031707 368.23242188 366.68530273 C365.12523409 360.15421656 361.99360326 353.64095568 358.73242188 347.18530273 C355.12308569 340.03217075 351.66322005 332.81144314 348.21630859 325.57885742 C344.74594539 318.2985236 341.25201851 311.02984306 337.74282837 303.76815796 C336.85931243 301.93921633 335.97677154 300.10980717 335.09448242 298.28027344 C332.38075561 292.65493465 329.66120072 287.03267777 326.918396 281.42144775 C325.70515172 278.93783637 324.49620351 276.45214676 323.28778076 273.96618652 C322.43960699 272.22569744 321.58535236 270.48817584 320.73095703 268.75073242 C320.21968262 267.69789063 319.7084082 266.64504883 319.18164062 265.56030273 C318.73135498 264.63991211 318.28106934 263.71952148 317.81713867 262.77124023 C316.75232726 260.23275667 316.16707191 257.89658909 315.73242188 255.18530273 C330.21979079 246.98959118 345.39160908 240.57852908 360.73242188 234.18530273 C354.00398462 233.38636986 348.23980387 232.70333668 341.73242188 234.99780273 C341.08619873 235.22081055 340.43997559 235.44381836 339.77416992 235.67358398 C338.28192039 236.19292131 336.79342663 236.72312992 335.30810547 237.26196289 C332.38499463 238.30984964 329.44491684 239.30004013 326.50195312 240.29077148 C309.05552718 246.24769194 292.42953124 253.41877952 275.73242188 261.18530273 C274.08840221 261.93772362 272.44393479 262.68916772 270.79882812 263.43920898 C261.12871696 267.87818172 251.710618 272.76062285 242.33691406 277.79174805 C239.62292654 279.2438891 236.90064119 280.67965221 234.17773438 282.11499023 C219.37866583 289.96748113 205.07226749 298.50040838 190.81884766 307.28881836 C188.21406775 308.88935073 185.60128046 310.47388524 182.97851562 312.04467773 C173.35106356 317.8222524 163.93684541 323.9099014 154.54492188 330.06030273 C153.91055206 330.47544128 153.27618225 330.89057983 152.62258911 331.31829834 C146.24511001 335.49638614 139.88675619 339.68124177 133.73242188 344.18530273 C133.07242187 343.85530273 132.41242188 343.52530273 131.73242188 343.18530273 C132.53164063 342.2997168 133.33085938 341.41413086 134.15429688 340.50170898 C150.03325829 322.68753723 168.25634984 299.99715859 173.18798828 275.96533203 C174.05384602 272.27869018 174.83557889 269.92062798 177.82006836 267.47363281 C180.56637863 265.85811012 183.34493368 264.46978427 186.23242188 263.12280273 C187.26109375 262.61676514 188.28976562 262.11072754 189.34960938 261.58935547 C192.45930074 260.07889967 195.58777015 258.62138727 198.73242188 257.18530273 C199.62316406 256.77828125 200.51390625 256.37125977 201.43164062 255.9519043 C210.55194375 251.84776789 219.80462257 248.30873177 229.33789062 245.29077148 C231.72468683 244.51348342 234.08858963 243.66403023 236.43164062 242.76342773 C241.64765374 240.78325723 246.99697961 239.28291522 252.35742188 237.74780273 C253.42702148 237.4399585 254.49662109 237.13211426 255.59863281 236.81494141 C257.70904225 236.20764661 259.81971046 235.60125017 261.93066406 234.99584961 C264.19557301 234.34061279 266.45403349 233.67062016 268.70898438 232.98217773 C293.78765888 225.44061929 320.72705092 221.45783433 346.77929688 219.54467773 C350.51184218 219.44742565 350.51184218 219.44742565 352.73242188 218.18530273 C342.73438934 212.79800154 334.1226171 212.53852335 323.10742188 212.81030273 C321.5605692 212.82686224 320.01369106 212.84119657 318.46679688 212.85327148 C310.84349765 212.93703057 303.30678775 213.26307455 295.73242188 214.18530273 C295.46429687 213.59370361 295.19617188 213.00210449 294.91992188 212.39257812 C286.16631971 193.15588949 276.9113983 174.17493868 267.57617188 155.21484375 C262.10689392 144.10227525 256.68538818 132.97004263 251.3633728 121.78605652 C248.23359188 115.21065581 245.03945421 108.67378389 241.73242188 102.18530273 C233.22912985 118.15894893 224.94567181 134.23820075 217.20759583 150.59849548 C209.61367486 166.64002594 201.63806773 182.49023274 193.68231201 198.35418701 C191.78152413 202.14546067 189.88304078 205.93788789 187.984375 209.73022461 C185.50957492 214.67286844 183.03410794 219.61517622 180.55705261 224.55669022 C179.27514075 227.11419644 177.99377348 229.67197536 176.71241188 232.22975731 C176.04178182 233.56798275 175.37085783 234.90606092 174.69968224 236.24401283 C170.58604324 244.44443906 166.50509716 252.65707389 162.52539062 260.92358398 C161.59934192 262.83587916 160.67289726 264.74798264 159.74609375 266.65991211 C158.33449682 269.57314561 156.92497844 272.48728596 155.5222168 275.40478516 C144.45360907 298.40894781 132.35265024 319.71169003 115.73242188 339.18530273 C115.01441406 340.03866211 114.29640625 340.89202148 113.55664062 341.77124023 C108.15264429 348.01031238 102.21392788 353.09995565 95.73242188 358.18530273 C94.94222656 358.85303711 94.15203125 359.52077148 93.33789062 360.20874023 C86.3099032 366.10618905 78.71131147 370.7125902 70.73242188 375.18530273 C69.82459961 375.70374756 69.82459961 375.70374756 68.8984375 376.23266602 C45.56335208 389.39491555 20.26740582 394.37325347 -6.19140625 394.37060547 C-8.63103692 394.37279239 -11.07021442 394.39101418 -13.50976562 394.40991211 C-22.62583849 394.44265068 -31.28389417 393.91274525 -40.26757812 392.18530273 C-41.53730469 391.97389648 -42.80703125 391.76249023 -44.11523438 391.54467773 C-81.8571455 384.39068243 -114.3166553 366.29847375 -142.26757812 340.18530273 C-143.13125 339.38737305 -143.99492187 338.58944336 -144.88476562 337.76733398 C-153.01043956 329.98317388 -159.7048624 321.29909734 -166.26757812 312.18530273 C-166.68249512 311.61505371 -167.09741211 311.04480469 -167.52490234 310.45727539 C-198.95331606 266.64512851 -206.01739154 210.96908359 -197.91162109 158.89868164 C-197.22789636 154.93666105 -196.30750763 151.06739252 -195.26757812 147.18530273 C-195.10563965 146.5560791 -194.94370117 145.92685547 -194.77685547 145.27856445 C-187.1152356 115.7993678 -172.17793519 88.73657816 -151.39257812 66.46655273 C-149.9644994 64.93346823 -148.56859973 63.36982794 -147.20507812 61.77905273 C-135.2459602 47.88537162 -120.63246269 37.97416878 -105.26757812 28.18530273 C-103.64722656 27.13342773 -103.64722656 27.13342773 -101.99414062 26.06030273 C-92.6683684 20.28847809 -82.39530691 16.31420065 -72.26757812 12.18530273 C-71.24664062 11.76120117 -70.22570312 11.33709961 -69.17382812 10.90014648 C-47.03929846 2.24946796 -23.53157664 -0.00201884 0 0 Z " fill="#F76E1B" transform="translate(389.267578125,294.814697265625)"/>
<path d="M0 0 C0.99 0.495 0.99 0.495 2 1 C1.36932617 1.39227783 0.73865234 1.78455566 0.08886719 2.1887207 C-2.46882667 4.40652467 -2.75828233 5.69794865 -3.421875 8.98046875 C-3.63835693 9.97216064 -3.85483887 10.96385254 -4.07788086 11.9855957 C-4.29968018 13.04222412 -4.52147949 14.09885254 -4.75 15.1875 C-7.94760677 29.10606684 -13.61124128 45.61124128 -24 56 C-23.443125 55.855625 -22.88625 55.71125 -22.3125 55.5625 C-19.88615805 54.97230872 -17.45093655 54.476571 -15 54 C-19.77323427 58.08846649 -25.06511996 61.29402732 -30.375 64.625 C-37.16787046 68.91614978 -43.94287137 73.22538155 -50.625 77.6875 C-51.22103027 78.08469238 -51.81706055 78.48188477 -52.43115234 78.89111328 C-55.35052785 80.84959524 -58.21214008 82.85810762 -61 85 C-61.66 84.67 -62.32 84.34 -63 84 C-61.80117188 82.67162109 -61.80117188 82.67162109 -60.578125 81.31640625 C-44.55858189 63.34451975 -26.78279065 40.88467324 -21.51147461 16.76464844 C-20.63262021 13.17147597 -19.90136608 10.75736019 -17.01342773 8.33081055 C-14.54153965 6.85080571 -12.04895811 5.59097828 -9.4375 4.375 C-8.56158203 3.93027344 -7.68566406 3.48554687 -6.78320312 3.02734375 C-2.16333973 0.74408563 -2.16333973 0.74408563 0 0 Z " fill="#BE400D" transform="translate(584,554)"/>
<path d="M0 0 C0.97484848 0.00222061 1.94969696 0.00444122 2.9540863 0.00672913 C4.05515213 0.00680466 5.15621796 0.00688019 6.29064941 0.00695801 C8.08749428 0.01469994 8.08749428 0.01469994 9.92063904 0.02259827 C11.14000656 0.02401321 12.35937408 0.02542816 13.61569214 0.02688599 C17.52856349 0.03250485 21.4413786 0.04506055 25.35423279 0.05775452 C27.99941426 0.06276709 30.64459662 0.06733041 33.28977966 0.07142639 C39.79045005 0.08248041 46.2910874 0.09923688 52.79173279 0.12025452 C51.92698669 2.08216858 51.92698669 2.08216858 50.79173279 4.12025452 C48.62767029 4.72962952 48.62767029 4.72962952 46.16673279 4.87025452 C45.34946716 4.92697327 44.53220154 4.98369202 43.69017029 5.04212952 C43.06368591 5.06791077 42.43720154 5.09369202 41.79173279 5.12025452 C41.29673279 3.63525452 41.29673279 3.63525452 40.79173279 2.12025452 C34.86480041 2.18903536 28.93858003 2.27695493 23.01219177 2.38270569 C20.99567044 2.41598162 18.97905537 2.4440052 16.96238708 2.46669006 C14.06525179 2.50018708 11.16897761 2.55249996 8.27220154 2.60853577 C7.36898666 2.61492569 6.46577179 2.62131561 5.53518677 2.62789917 C4.69454178 2.64769333 3.85389679 2.66748749 2.98777771 2.68788147 C1.87858223 2.70453606 1.87858223 2.70453606 0.74697876 2.7215271 C-1.70773554 3.22210959 -2.62226342 4.23283629 -4.20826721 6.12025452 C-3.14045557 0.17101824 -3.14045557 0.17101824 0 0 Z " fill="#D59144" transform="translate(608.2082672119141,295.87974548339844)"/>
<path d="M0 0 C0.8250856 -0.00307663 1.6501712 -0.00615326 2.5002594 -0.00932312 C3.82838905 0.00145515 3.82838905 0.00145515 5.18334961 0.01245117 C6.56737221 0.0131385 6.56737221 0.0131385 7.97935486 0.01383972 C9.93367802 0.01685945 11.88799883 0.02473742 13.84228516 0.03710938 C16.80046349 0.05520442 19.75832517 0.05761996 22.71655273 0.05737305 C48.06206517 0.1021678 48.06206517 0.1021678 52.77319336 3.24291992 C51.70584961 3.17073242 50.63850586 3.09854492 49.53881836 3.02416992 C37.937151 2.28607337 26.3959643 2.13372896 14.77319336 2.24291992 C14.77319336 3.23291992 14.77319336 4.22291992 14.77319336 5.24291992 C11.80319336 5.24291992 8.83319336 5.24291992 5.77319336 5.24291992 C6.43319336 3.92291992 7.09319336 2.60291992 7.77319336 1.24291992 C-0.14680664 1.73791992 -0.14680664 1.73791992 -8.22680664 2.24291992 C-4.64681382 0.45292351 -3.67662201 -0.0072583 0 0 Z " fill="#EF932D" transform="translate(375.226806640625,294.757080078125)"/>
<path d="M0 0 C0.66 0 1.32 0 2 0 C2 0.66 2 1.32 2 2 C0.56615249 3.24184201 -0.92677025 4.41542288 -2.4375 5.5625 C-10.35465505 11.86728405 -17.31123953 19.13692195 -24.38696289 26.35522461 C-25.5847684 27.57659826 -26.79035302 28.79035302 -28 30 C-27.41109646 26.77247407 -26.450712 25.03796285 -24.2265625 22.64453125 C-23.65389648 22.02602295 -23.08123047 21.40751465 -22.49121094 20.77026367 C-21.87536133 20.12420166 -21.25951172 19.47813965 -20.625 18.8125 C-19.99883789 18.14774658 -19.37267578 17.48299316 -18.72753906 16.7980957 C-13.50755413 11.34415258 -7.96428415 6.6278427 -2 2 C-1.34 1.34 -0.68 0.68 0 0 Z " fill="#E29E4F" transform="translate(263,337)"/>
<path d="M0 0 C6.93 0.33 13.86 0.66 21 1 C21 1.33 21 1.66 21 2 C15.39 2.99 9.78 3.98 4 5 C4.33 4.01 4.66 3.02 5 2 C3.35 1.67 1.7 1.34 0 1 C0 0.67 0 0.34 0 0 Z " fill="#DC460D" transform="translate(359,624)"/>
<path d="M0 0 C0.66 0 1.32 0 2 0 C2 0.66 2 1.32 2 2 C0.32464541 3.51984883 -1.41705622 4.96706453 -3.1875 6.375 C-4.15042969 7.14585937 -5.11335938 7.91671875 -6.10546875 8.7109375 C-7.06066406 9.46632813 -8.01585937 10.22171875 -9 11 C-10.66711035 12.33277854 -12.33392781 13.66592391 -14 15 C-13.7035748 11.83331129 -12.93550613 10.93933642 -10.56640625 8.7109375 C-9.07947266 7.55464844 -9.07947266 7.55464844 -7.5625 6.375 C-3.64826276 3.33716128 -3.64826276 3.33716128 0 0 Z " fill="#EAA755" transform="translate(263,337)"/>
<path d="M0 0 C-2.119212 1.36405618 -4.24448118 2.71631775 -6.375 4.0625 C-6.97828125 4.45244141 -7.5815625 4.84238281 -8.203125 5.24414062 C-9.76492557 6.22460432 -11.37992214 7.11916075 -13 8 C-13.66 7.67 -14.32 7.34 -15 7 C-11.01070672 2.52715601 -6.28600736 -2.09533579 0 0 Z " fill="#D94B10" transform="translate(569,609)"/>
<path d="M0 0 C0.66 0.33 1.32 0.66 2 1 C1.01 6.94 0.02 12.88 -1 19 C-1.33 19 -1.66 19 -2 19 C-2.19818283 12.29481414 -2.30844801 6.34823202 0 0 Z " fill="#EC8E34" transform="translate(193,449)"/>
<path d="M0 0 C2.31 0 4.62 0 7 0 C7 1.32 7 2.64 7 4 C4.03 4 1.06 4 -2 4 C-1.34 2.68 -0.68 1.36 0 0 Z " fill="#FA912E" transform="translate(383,296)"/>
<path d="M0 0 C0.66 0.33 1.32 0.66 2 1 C-1.50222763 6.11672973 -4.58627581 9.90644332 -10 13 C-8.54235334 9.59882447 -6.63929285 7.56166659 -4 5 C-2.64843325 3.34808509 -1.31037934 1.68477344 0 0 Z " fill="#FBA03D" transform="translate(252,356)"/>
<path d="M0 0 C0.66 0.33 1.32 0.66 2 1 C-0.97519337 5.69165109 -4.31393365 9.84703191 -8 14 C-8.33 13.34 -8.66 12.68 -9 12 C-8.34 11.01 -7.68 10.02 -7 9 C-6.34 9 -5.68 9 -5 9 C-5 8.01 -5 7.02 -5 6 C-3.70896357 4.6256709 -2.3743291 3.29103643 -1 2 C-0.67 1.34 -0.34 0.68 0 0 Z " fill="#FB9C39" transform="translate(240,369)"/>
<path d="M0 0 C6.93 0.495 6.93 0.495 14 1 C13.67 1.66 13.34 2.32 13 3 C11.39667209 3.08121924 9.79215974 3.13929134 8.1875 3.1875 C7.29417969 3.22230469 6.40085937 3.25710938 5.48046875 3.29296875 C3 3 3 3 0 0 Z " fill="#DD4818" transform="translate(325,637)"/>
<path d="M0 0 C3.63 0 7.26 0 11 0 C10.67 0.66 10.34 1.32 10 2 C7.93359375 2.4140625 7.93359375 2.4140625 5.4375 2.625 C4.61121094 2.69976562 3.78492188 2.77453125 2.93359375 2.8515625 C1.97646484 2.92503906 1.97646484 2.92503906 1 3 C0.67 2.01 0.34 1.02 0 0 Z " fill="#FCA44A" transform="translate(649,298)"/>
<path d="M0 0 C0.33 0.99 0.66 1.98 1 3 C-1.64 5.97 -4.28 8.94 -7 12 C-7 8.19654123 -5.86213669 7.22298985 -3.5 4.3125 C-2.8503125 3.50425781 -2.200625 2.69601562 -1.53125 1.86328125 C-1.0259375 1.24839844 -0.520625 0.63351562 0 0 Z " fill="#E09E4C" transform="translate(232,368)"/>
<path d="M0 0 C5.28 0 10.56 0 16 0 C16 0.33 16 0.66 16 1 C15.02417969 1.03738281 14.04835938 1.07476562 13.04296875 1.11328125 C11.13451172 1.21189453 11.13451172 1.21189453 9.1875 1.3125 C7.29064453 1.39951172 7.29064453 1.39951172 5.35546875 1.48828125 C2.03396307 1.7113494 2.03396307 1.7113494 0.05078125 3.54296875 C-0.46935547 4.26419922 -0.46935547 4.26419922 -1 5 C-0.67 3.35 -0.34 1.7 0 0 Z " fill="#F7AF5A" transform="translate(605,297)"/>
<path d="M0 0 C0.66 0.33 1.32 0.66 2 1 C1.38125 1.556875 0.7625 2.11375 0.125 2.6875 C-2.06106379 5.06645178 -2.98785699 6.96357096 -4 10 C-4.66 10 -5.32 10 -6 10 C-4.52307692 3.47692308 -4.52307692 3.47692308 -1.875 1.0625 C-1.25625 0.711875 -0.6375 0.36125 0 0 Z " fill="#FB922C" transform="translate(611,307)"/>
<path d="M0 0 C3.77727089 1.81309003 7.37269822 3.9073259 11 6 C10.34 6.66 9.68 7.32 9 8 C7.49460339 7.05016642 5.99579653 6.08988109 4.5 5.125 C3.6646875 4.59132813 2.829375 4.05765625 1.96875 3.5078125 C1.3190625 3.01023437 0.669375 2.51265625 0 2 C0 1.34 0 0.68 0 0 Z " fill="#C44418" transform="translate(264,610)"/>
<path d="M0 0 C2.64 0.33 5.28 0.66 8 1 C7.67 1.99 7.34 2.98 7 4 C4.97954558 3.39816251 2.97888961 2.72693904 1 2 C0.67 1.34 0.34 0.68 0 0 Z " fill="#1E0802" transform="translate(288,624)"/>
</svg>
